REM DIRINDEX 1\2\6,1\2\7,1\2\8,1\2\9,1\3\10,1\3\11,1\4\12,1\4\13,1\4\14,1\5\15,1\5\16,1\5\17
REM DIRNAME folder01,folder02,folder03,folder04,folder05,folder06,folder07,folder08,folder09,folder10,folder11,folder12,folder13,folder14,folder15,folder16,folder17
TITLE ""
FILE "1900_3_071 sec12_1167_1183.mp3" MP3
  TRACK 01 AUDIO
    TITLE "0:"
    INDEX 01 00:00:00
  TRACK 02 AUDIO
    TITLE "17:cjc020_8312"
    INDEX 01 00:00:13
  TRACK 03 AUDIO
    TITLE "0:"
    INDEX 01 00:01:62
  TRACK 04 AUDIO
    TITLE "16:cjc020_8313"
    INDEX 01 00:01:69
  TRACK 05 AUDIO
    TITLE "0:"
    INDEX 01 00:03:23
  TRACK 06 AUDIO
    TITLE "17:cjc020_8314"
    INDEX 01 00:04:07
  TRACK 07 AUDIO
    TITLE "0:"
    INDEX 01 00:06:59
  TRACK 08 AUDIO
    TITLE "16:cjc020_8315"
    INDEX 01 00:06:61
  TRACK 09 AUDIO
    TITLE "0:"
    INDEX 01 00:07:60
  TRACK 10 AUDIO
    TITLE "17:cjc020_8316"
    INDEX 01 00:08:44
  TRACK 11 AUDIO
    TITLE "0:"
    INDEX 01 00:10:41
  TRACK 12 AUDIO
    TITLE "16:cjc020_8317"
    INDEX 01 00:10:47
  TRACK 13 AUDIO
    TITLE "0:"
    INDEX 01 00:11:64
  TRACK 14 AUDIO
    TITLE "17:cjc020_8318"
    INDEX 01 00:12:44
  TRACK 15 AUDIO
    TITLE "0:"
    INDEX 01 00:14:15
  TRACK 16 AUDIO
    TITLE "16:cjc020_8319"
    INDEX 01 00:14:21
  TRACK 17 AUDIO
    TITLE "0:"
    INDEX 01 00:15:72
  TRACK 18 AUDIO
    TITLE "17:cjc020_8320"
    INDEX 01 00:16:61
  TRACK 19 AUDIO
    TITLE "0:"
    INDEX 01 00:18:05
  TRACK 20 AUDIO
    TITLE "16:cjc020_8321"
    INDEX 01 00:18:07
  TRACK 21 AUDIO
    TITLE "0:"
    INDEX 01 00:19:22
  TRACK 22 AUDIO
    TITLE "17:cjc020_8322"
    INDEX 01 00:20:06
  TRACK 23 AUDIO
    TITLE "0:"
    INDEX 01 00:22:27
  TRACK 24 AUDIO
    TITLE "16:cjc020_8323"
    INDEX 01 00:22:30
  TRACK 25 AUDIO
    TITLE "0:"
    INDEX 01 00:23:46
  TRACK 26 AUDIO
    TITLE "17:cjc020_8324"
    INDEX 01 00:24:35
  TRACK 27 AUDIO
    TITLE "0:"
    INDEX 01 00:25:56
  TRACK 28 AUDIO
    TITLE "16:cjc020_8325"
    INDEX 01 00:25:62
  TRACK 29 AUDIO
    TITLE "0:"
    INDEX 01 00:27:14
  TRACK 30 AUDIO
    TITLE "17:cjc020_8326"
    INDEX 01 00:27:71
  TRACK 31 AUDIO
    TITLE "0:"
    INDEX 01 00:29:27
  TRACK 32 AUDIO
    TITLE "16:cjc020_8327"
    INDEX 01 00:29:34
  TRACK 33 AUDIO
    TITLE "0:"
    INDEX 01 00:30:50
  TRACK 34 AUDIO
    TITLE "17:cjc020_8328"
    INDEX 01 00:31:35
  TRACK 35 AUDIO
    TITLE "0:"
    INDEX 01 00:32:62
  TRACK 36 AUDIO
    TITLE "16:cjc020_8329"
    INDEX 01 00:32:64
  TRACK 37 AUDIO
    TITLE "0:"
    INDEX 01 00:33:66
  TRACK 38 AUDIO
    TITLE "17:cjc020_8330"
    INDEX 01 00:34:53
  TRACK 39 AUDIO
    TITLE "0:"
    INDEX 01 00:36:66
  TRACK 40 AUDIO
    TITLE "16:cjc020_8331"
    INDEX 01 00:36:74
  TRACK 41 AUDIO
    TITLE "0:"
    INDEX 01 00:38:20
  TRACK 42 AUDIO
    TITLE "17:cjc020_8332"
    INDEX 01 00:39:03
  TRACK 43 AUDIO
    TITLE "0:"
    INDEX 01 00:40:28
  TRACK 44 AUDIO
    TITLE "16:cjc020_8333"
    INDEX 01 00:40:34
  TRACK 45 AUDIO
    TITLE "0:"
    INDEX 01 00:41:63
  TRACK 46 AUDIO
    TITLE "17:cjc020_8334"
    INDEX 01 00:42:49
  TRACK 47 AUDIO
    TITLE "0:"
    INDEX 01 00:44:01
  TRACK 48 AUDIO
    TITLE "16:cjc020_8335"
    INDEX 01 00:44:09
  TRACK 49 AUDIO
    TITLE "0:"
    INDEX 01 00:45:39
  TRACK 50 AUDIO
    TITLE "17:cjc020_8336"
    INDEX 01 00:46:21
  TRACK 51 AUDIO
    TITLE "0:"
    INDEX 01 00:47:40
  TRACK 52 AUDIO
    TITLE "16:cjc020_8337"
    INDEX 01 00:47:42
  TRACK 53 AUDIO
    TITLE "0:"
    INDEX 01 00:48:46
  TRACK 54 AUDIO
    TITLE "17:cjc020_8338"
    INDEX 01 00:49:31
  TRACK 55 AUDIO
    TITLE "0:"
    INDEX 01 00:50:50
  TRACK 56 AUDIO
    TITLE "16:cjc020_8339"
    INDEX 01 00:50:56
  TRACK 57 AUDIO
    TITLE "0:"
    INDEX 01 00:51:73
  TRACK 58 AUDIO
    TITLE "17:cjc020_8340"
    INDEX 01 00:52:55
  TRACK 59 AUDIO
    TITLE "0:"
    INDEX 01 00:53:74
  TRACK 60 AUDIO
    TITLE "16:cjc020_8341"
    INDEX 01 00:54:01
  TRACK 61 AUDIO
    TITLE "0:"
    INDEX 01 00:55:06
  TRACK 62 AUDIO
    TITLE "17:cjc020_8342"
    INDEX 01 00:55:65
  TRACK 63 AUDIO
    TITLE "0:"
    INDEX 01 00:56:72
  TRACK 64 AUDIO
    TITLE "16:cjc020_8343"
    INDEX 01 00:57:03
  TRACK 65 AUDIO
    TITLE "0:"
    INDEX 01 00:58:03
  TRACK 66 AUDIO
    TITLE "17:cjc020_8344"
    INDEX 01 00:58:66
  TRACK 67 AUDIO
    TITLE "0:"
    INDEX 01 00:59:69
  TRACK 68 AUDIO
    TITLE "16:cjc020_8345"
    INDEX 01 01:00:00
  TRACK 69 AUDIO
    TITLE "0:"
    INDEX 01 01:01:09
